<?xml version="1.0" encoding="UTF-8"?>
<!DOCTYPE svg PUBLIC "-//W3C//DTD SVG 1.1//EN" "http://www.w3.org/Graphics/SVG/1.1/DTD/svg11.dtd">
<!-- Creator: CorelDRAW -->
<svg xmlns="http://www.w3.org/2000/svg" xml:space="preserve" width="80mm" height="50mm" version="1.1" style="shape-rendering:geometricPrecision; text-rendering:geometricPrecision; image-rendering:optimizeQuality; fill-rule:evenodd; clip-rule:evenodd"
viewBox="0 0 5080.55 3175.34"
 xmlns:xlink="http://www.w3.org/1999/xlink"
 xmlns:xodm="http://www.corel.com/coreldraw/odm/2003">
 <defs>
  <style type="text/css">
   <![CDATA[
    .fil0 {fill:#EC268F}
   ]]>
  </style>
 </defs>
 <g id="Camada_x0020_1">
  <metadata id="CorelCorpID_0Corel-Layer"/>
  <g id="_2084296666992">
   <path class="fil0" d="M154.4 226.47c87.39,0.13 294.32,-18.03 353.9,12.54 14.43,33.32 18.93,957.53 2.3,1007.32 -77.16,38.54 -256.75,14.91 -353.13,16.2 -112.99,-2.69 -79.54,-76.76 -79.31,-190.39 0.35,-171.63 -10.77,-750.19 10.76,-839.95l65.47 -5.72zm2464.91 856.95c-109.84,-68.43 -64.88,-219.14 9.38,-214.11 81.61,5.52 105.82,181.17 -9.38,214.11zm-0.3 -512.32c57.32,-54.37 212.34,-59 298.09,-40.82 369.08,78.22 613.25,508.68 430.35,916.3 -122.8,273.7 -461.42,431.75 -700.61,325.22l-10.54 -2.48 -18 -9.03c-113.42,-34.5 -176.12,-112.47 -239.99,-180.87 -52.53,-56.25 -129.15,-188.77 -130.63,-295.07l84.1 -5.51c38.45,-25.79 79.64,-41.6 108.67,-69.78 38.57,-37.44 33.47,-71.07 65.98,-110.64 56.25,25.98 91.04,84.68 182.97,38.64 49.53,-24.81 95.95,-99.1 86.95,-186.27 -7.41,-71.79 -63.42,-141.05 -123.87,-151.93 -89.75,-16.16 -128.86,48.39 -168.62,95.3l-61 -68.98 -72.07 -47.45c43.39,-55.99 163.4,-195.29 268.24,-206.63zm-903.7 185.41c-48.84,-167.11 133.49,-119.61 260.47,-119.62 124.6,0 249.65,-1.56 373.95,-1.53 -15.59,51.22 -39.81,64.42 -76.78,109.88 -37.3,45.86 -65.3,28.88 -139.11,28.92 -87.93,0.04 -349,14.16 -418.53,-17.65zm531.57 103.85c58.33,2.95 83.76,0.65 124.37,39.6 22.49,21.56 56.15,60.88 59.9,110.89 8.71,116.55 -67.94,173.54 -164.27,185.38 -298.95,5.87 -601.35,0.32 -900.77,0.99 -485.34,1.09 -274.48,-160.43 -541.85,-156.86 -56.46,0.76 -179.34,19.9 -218.26,-9.99 -23.12,-20.73 -14.83,-60.37 -14.2,-129.89l-0.03 -473.33c63.89,-12.27 185.15,-4.21 255.34,-3.92 107.38,0.44 123.29,-33.82 192.75,-85.75l315.83 -233.26c84.57,-43.83 899.24,-17.86 1063.38,-18.82 117.74,2.85 205.72,144.62 308.96,255.28 28.18,30.21 68.9,52 73.85,102.61l-87.63 3.2c-69.34,13.04 -132.01,36.5 -190.83,67.58 -119.04,62.9 -72.7,38.62 -220.23,37.69 -166.62,-1.05 -368.59,-10.14 -531.49,0.6 -188.02,12.38 -187.75,246.53 -45.67,299.24 50.59,18.78 440.13,10.84 520.85,8.74zm-2246.88 -642.58l0 1057.57c53.1,32.2 46.81,69.46 147.53,72.84 405.71,13.62 448.41,23.8 443.6,-218.26 70.41,-1.77 140.26,-0.96 210.6,-1.82 218.43,-2.69 137.54,154.75 507.9,153.2 277.7,-1.16 570.67,-9.2 846.79,0.4 31.6,53.42 55.63,360.14 362.36,526 235.49,127.34 474.43,97.32 677.18,-47.41 374.66,-267.46 389.35,-924.76 -11.52,-1204.37 -157.14,-109.6 -222.52,-75.94 -285.61,-143.35l-320.97 -350.5c-50.23,-51.27 -75.3,-59.75 -161.51,-62.09l-847.02 0.19c-268.83,-0.29 -224.71,10.66 -470.2,192.91 -19.36,14.36 -35.27,29.19 -58.7,46.18 -139.7,101.28 -120.45,99.65 -238.72,98.73 -65.63,-0.51 -147.49,10.43 -209.46,-6.97 -4.5,-226.09 -77.31,-197.99 -446.12,-190 -86.48,1.87 -88.34,14 -127.35,57.57 -18.56,20.73 12.05,-0.94 -18.79,19.19z"/>
   <path class="fil0" d="M4854.89 1895.45c121.15,-0.5 109.87,-11.31 134.67,25.53 22.67,33.68 19.83,1045.49 -0.2,1118.13l-123.3 7.44c-371.95,11.2 -349.63,15.67 -350.04,-134.43 -0.53,-195.73 -8.58,-893.86 6.41,-1013.8l332.46 -2.88zm225.67 -2.06l0 1154.75c-62.8,53.35 -38.19,80.07 -157.47,80.32 -83.98,0.17 -392.1,19.08 -445.24,-27.44 -55.95,-48.99 -34.2,-123.56 -41.31,-213.61 -85.33,-9.6 -193.54,-2.32 -281.88,-3.37 -120.29,-1.42 -143.82,32.45 -221.3,82.64 -108.86,70.53 -256.26,203.56 -399.19,203.32 -174.22,-0.3 -1054.81,20.36 -1146.85,-17.65 -97.51,-40.26 -497.58,-504.53 -598.66,-613.47 -73.63,-79.36 -234.57,-228.98 -112.13,-417.35 36.99,-56.91 101.08,-109.16 197.82,-106.48 93.37,2.58 148.27,62.43 192.14,111.59 96.91,108.6 189.27,205.72 287.13,313.61 50.18,55.32 80.27,115.49 186.02,118.45 71.2,1.98 689.74,7.76 719.27,-6.93 41.6,-20.68 35.96,-81.11 4.1,-104.85 -76.51,-57.04 -387.94,53.93 -516.35,-78.04 -125.29,-128.75 -60.97,-349.4 84.9,-404.28 80.14,-30.15 450.56,-15.5 566.77,-15.59 173.51,-0.13 388.4,-23.05 534.74,50.75 86.79,43.77 90.92,97.73 210.13,96.98 93.67,-0.6 204.75,5.37 295.99,-3.27 4.95,-309.91 -37.25,-282.83 472.56,-280.55 129.73,0.58 99.51,20.34 168.81,80.48zm-2122.54 752.99c158.85,-0.09 438.88,49.71 407.11,-174.66 -24.7,-174.42 -271.66,-113.28 -439.79,-119.33 -236.96,-8.52 -198.31,-295.75 -35.35,-313.93 153.06,-17.08 391.19,-1.3 553.5,-1.47 169.67,-0.18 378.89,-26.19 503.85,69.91 94.44,72.64 71.51,74.89 218.7,73.68 79,-0.65 189.5,-6.66 265,2.31 13.42,54.53 13.69,557.01 1.23,613.71 -252.97,39.35 -308.94,-63.78 -498.31,71.98 -65.39,46.89 -301.81,210.16 -366,216.36 -160.72,15.5 -395.93,0.48 -564.79,0.48 -661.14,0 -509.01,93.06 -856.99,-284.85 -50.44,-54.78 -394.54,-416.71 -418.42,-465.63 -63.63,-130.37 82.3,-353.43 263.42,-163.42 481.96,505.58 273.61,475.23 966.84,474.85z"/>
   <path class="fil0" d="M1715.31 756.51c69.53,31.81 330.6,17.69 418.53,17.65 73.81,-0.04 101.81,16.94 139.11,-28.92 36.97,-45.46 61.19,-58.65 76.78,-109.88 -124.3,-0.03 -249.35,1.53 -373.95,1.53 -126.98,0.01 -309.32,-47.49 -260.47,119.62z"/>
   <path class="fil0" d="M2985.41 1249.69c18.42,-17.46 -26.69,-10.83 29.88,-16.21 71.15,-6.77 98.71,136.27 36.92,187.38 -65.36,54.07 -166.46,-76.7 -66.8,-171.18zm-115.07 141.37c45.14,194.28 335.21,143.96 289.72,-108.53 -38.82,-215.45 -346.49,-135.8 -289.72,108.53z"/>
   <path class="fil0" d="M2575.55 1500.71c63.54,10.42 66.07,-11.7 94.4,-54.71l186.92 -274.97c35.67,-59.35 81.23,-130.72 121.99,-186.67 19.15,-26.28 43.86,-58.3 64.12,-90.29 25.2,-39.78 36.66,-50.51 5.35,-91.48 -59.26,6.68 -103.21,107.6 -137.4,157.39l-238.89 353.85c-38.23,58.46 -99.69,106.13 -96.49,186.88z"/>
   <path class="fil0" d="M171.77 361.96c-24.21,62.22 -10.75,230.3 -14.66,316.94 21.59,12.96 35.65,17.54 70.38,13.81 20.75,-55.73 13.52,-139.72 14.45,-209.59 1.07,-81.49 -2.43,-154.12 -70.18,-121.16z"/>
  </g>
 </g>
</svg>
