<?xml version="1.0" encoding="UTF-8"?>
<!DOCTYPE svg PUBLIC "-//W3C//DTD SVG 1.1//EN" "http://www.w3.org/Graphics/SVG/1.1/DTD/svg11.dtd">
<!-- Creator: CorelDRAW -->
<svg xmlns="http://www.w3.org/2000/svg" xml:space="preserve" width="39.9999mm" height="60mm" version="1.1" style="shape-rendering:geometricPrecision; text-rendering:geometricPrecision; image-rendering:optimizeQuality; fill-rule:evenodd; clip-rule:evenodd"
viewBox="0 0 5168.57 7752.87"
 xmlns:xlink="http://www.w3.org/1999/xlink"
 xmlns:xodm="http://www.corel.com/coreldraw/odm/2003">
 <defs>
  <style type="text/css">
   <![CDATA[
    .fil0 {fill:#EC268F}
   ]]>
  </style>
 </defs>
 <g id="Camada_x0020_1">
  <metadata id="CorelCorpID_0Corel-Layer"/>
  <path class="fil0" d="M2584.51 7533.21c-20.97,-21.85 -4.41,-2.77 -33.91,-39.81 -471.97,-592.75 -375.33,-578.96 -285.62,-1141.67 38.39,-240.74 75.09,-483.17 113.84,-722.33 70.8,-436.76 23.3,-600.43 205.77,-602.57 172.66,-1.99 126.77,101.11 153.73,272.5l168.65 1073.32c53.2,372.29 136.94,528.67 20.53,681.86 -119.59,157.38 -219.7,337.5 -343,478.7zm1399.56 -2171.94c305.05,-98.28 380.33,347.28 127.1,432.47 -262.12,88.2 -448.21,-328.99 -127.1,-432.47zm-783.18 -502.18c132.81,-120.89 399.71,-718.29 518.85,-846.43 38.54,8.35 86.07,18.15 119.68,31l89.04 56.3c48.53,127.16 34.68,872.7 25.42,1056.5 -65.87,58.93 -341.73,119.92 -318.5,448.52 35.3,499.23 783.56,499.48 819.96,3.32 19.21,-261.87 -135.46,-358.51 -316.51,-439.33l-17.78 -1032.04c323.63,66.96 537.43,223.64 666.17,410.24 207.82,301.25 191.65,482.36 191.41,880.05 -0.22,355.29 45.03,1865.22 -17.47,2091.44 -152.56,88.31 -814.06,41.08 -1059.75,41.15 -357.94,0.12 -723.78,7.22 -1080.74,-0.89 13.58,-108.33 293.99,-410.5 341.89,-543.11 36.32,-100.55 -70.64,-623.64 -92.21,-766.85 -38.07,-252.98 -87.68,-521.66 -122.69,-777.6 -41.57,-303.96 -128.08,-470.2 7.17,-735.04 75.25,41.39 149.94,115.83 246.08,122.77zm-1983.96 -86.24c-10.14,-154.57 -6.91,-341.01 -2.18,-497.24 6.56,-215.99 23.85,-228.18 234.54,-261.52 122.38,128.98 390.02,730.94 515.93,845.57 106.61,-10.45 173.47,-82.13 250.11,-126.98 134.98,268.15 44.51,454.16 3.73,758.33 -29.89,222.92 -260.3,1425.35 -206.76,1541.61 61.62,133.84 314.37,409.39 340.71,527.87 -232.38,-1.5 -2080.3,42.4 -2143.85,-42.25 -63.69,-231.09 -17.34,-1752.45 -17.72,-2113.57 -0.4,-386.45 -3.51,-599.79 198.31,-872.75 131.4,-177.71 337.68,-326.06 649.64,-394.81l-5.72 635.15c-153.08,110.32 -201.39,27.92 -292.59,267.18 -63.26,166.01 -255.57,753.22 -222.86,903.09 31.74,145.38 166.78,230.47 353.05,196.21l45.55 -62.46c-52.44,-276.47 -344.5,121.47 -147.12,-512.59 51.5,-165.51 107.52,-495.58 224.17,-567.42 98.14,-60.45 235.91,-43.56 296.73,24.19 47.14,52.5 289.18,758.79 244.24,919.5 -141.93,52.8 -258.31,-5.41 -183.78,195.42 154.68,51.65 328.92,-44.57 367.5,-172.39 43.78,-144.93 -36.88,-350.31 -75.81,-479.66 -162.64,-540.25 -74.48,-474.54 -425.81,-710.47zm1161.29 -164.27c312.13,-178.54 112.8,-158.12 413.86,-0.8 -44.22,285.31 -125.92,249.13 -340.97,231.84l-72.89 -231.04zm766.13 -760.97c118.02,9.36 291.84,56.79 378.61,112.92 -26.93,85.14 -339.98,612.18 -393.54,664.87l-358.23 -244.31c-31.45,-25.51 -15.3,-8.08 -40.29,-36.98l413.45 -496.51zm-1118.49 -1.15l414.38 497.66c-69.25,77.31 -324.07,230.62 -416.95,286.58l-377.66 -680.79 380.23 -103.45zm558.66 370.16c-50.01,-36.36 -108.7,-104.59 -157.67,-166.38 -237.21,-299.42 -302.92,-224.11 -301.34,-630.67 481.91,112.93 427.16,135.13 918.93,-5.56 -9.01,377.33 -24.51,314.12 -311.43,649.78l-148.49 152.82zm637.45 -547.69c-10.31,-366.9 -55.52,-520.05 266.96,-269.1 140.29,109.19 268.77,246.83 356.41,443.57 -124.83,-3.13 -491.44,-134.64 -623.37,-174.47zm-1894.57 180.98c59.92,-182.97 242.65,-371.58 363.49,-461.45 317.85,-236.41 268.16,-76.71 255.06,280.6l-618.55 180.85zm398.15 -2139.22c727.17,-45.68 850.99,-73.64 1425.2,-385.64 249.31,250.17 296.61,300.24 297,536.96 1.03,308.29 43.14,696.17 -76.52,962.57 -371.67,827.37 -1651.97,615.14 -1650.75,-398.46l5.08 -715.43zm1902.76 194.14c168.47,8.26 292.22,79.8 292.13,250.26 -0.09,188.9 -113.51,241.76 -296,259.1l3.88 -509.36zm-2085.12 507.84c-184.73,-11.13 -293.82,-71.87 -294.4,-257.42 -0.53,-172.97 124.77,-241.32 293.28,-252.46l1.12 509.88zm-155.9 -687.19c13.35,-535.36 -16,-726.91 271.92,-1099.28 156.72,-202.67 517.85,-456.08 948.15,-445.6 824.65,20.12 1310.08,798.35 1163.58,1553.44l-143.96 -2.26c-2.6,-212.53 -71.38,-251.84 -189.36,-355.88 -100.43,-88.58 -144.75,-190.58 -253.89,-281.22 -100.57,15.32 -125.61,47.29 -183.24,97.52 -49.89,43.47 -82.08,64.62 -148.45,100.1 -439.78,234.99 -855.08,191.16 -1292.92,250.75l-34.2 170.49c-0.98,-3.13 -4.13,12.07 -7.57,19.56l-130.04 -7.62zm375.33 1402.73c-773.78,478.05 -466.83,742.17 -800.97,844.3 -393.76,120.34 -592.78,234.46 -800.33,581.26l-64.83 139.24c-135.49,382.06 -86.81,719.26 -86.81,1140.37 0,368.57 0,737.13 0,1105.68 0,447.44 -97.38,789.02 326,803.02 728.54,24.09 1514.29,0.5 2248.84,-1.01 738.95,-1.52 1488.47,12.95 2225.73,0.98 443.15,-7.18 349.28,-316.58 349.28,-780.42 0,-437.75 41.93,-1852.39 -54.83,-2183.53 -127.19,-435.3 -455.16,-684.97 -861.45,-797.52 -239.77,-66.43 -160.56,-88.2 -271.54,-290.23 -137.48,-250.25 -298.2,-410.53 -567.19,-562.51 87.01,-194.95 91.32,-67.1 202.71,-455.36 38.22,-133.26 75.24,-58.04 222.58,-113.84 266.6,-100.96 358.07,-429.04 200.61,-643.4 -92.17,-125.45 -74.32,-78.24 -71.44,-278.64 1.55,-109.43 2.36,-224.83 -1.83,-334.03 -27.33,-709.67 -633.07,-1302.83 -1372.67,-1302.52 -743.56,0.31 -1339.8,594.26 -1372.36,1302.6 -9.86,214.52 40.52,461.84 -62.9,600.67 -154.22,207.04 -111.87,520.94 176.02,647.12 132.74,58.17 196.6,-0.61 232.77,103.72 34.71,100.13 26.73,150.33 81.52,258.83 41.1,81.43 98.94,152.14 123.1,215.23z"/>
 </g>
</svg>
