<?xml version="1.0" encoding="UTF-8"?>
<!DOCTYPE svg PUBLIC "-//W3C//DTD SVG 1.1//EN" "http://www.w3.org/Graphics/SVG/1.1/DTD/svg11.dtd">
<!-- Creator: CorelDRAW -->
<svg xmlns="http://www.w3.org/2000/svg" xml:space="preserve" width="70mm" height="39.9998mm" version="1.1" style="shape-rendering:geometricPrecision; text-rendering:geometricPrecision; image-rendering:optimizeQuality; fill-rule:evenodd; clip-rule:evenodd"
viewBox="0 0 4517.3 2581.3"
 xmlns:xlink="http://www.w3.org/1999/xlink"
 xmlns:xodm="http://www.corel.com/coreldraw/odm/2003">
 <defs>
  <style type="text/css">
   <![CDATA[
    .fil0 {fill:#EC268F}
   ]]>
  </style>
 </defs>
 <g id="Camada_x0020_1">
  <metadata id="CorelCorpID_0Corel-Layer"/>
  <g id="_2084448991360">
   <path class="fil0" d="M357.28 336.18c1.23,-0.5 3919.49,-28.61 4035.04,-3.03 44.35,101.45 -17.34,1813.16 11.67,2144.29 -11.18,9.36 1.15,7.59 -25.81,12.17 -11.87,2.01 -21.15,-0.23 -34.17,-0.68 -19.77,-0.68 -37.95,-1.94 -58.64,-1.99l-3825.5 0.23c-15.91,0.21 -92.16,6.76 -98.47,-7.05 -1.54,-3.38 -5.61,-2.92 -7.4,-5.29 -20.22,-51.54 -5.58,-935.97 -5.58,-1074.55l-1.38 -1040.83c2.89,-21.92 3.39,-12.44 10.24,-23.28zm-244.4 -225.07c318.39,-17 694.46,-0.78 1019.36,-0.78 432.58,0 2967.95,-13.26 3029.93,8.46 10.71,132.72 11.64,110.02 -120.12,108.6 -410.26,-4.39 -3692.53,-8.6 -3802.79,3.32l-3.38 2026.9 -123.66 -0.97 0.66 -2145.53zm-112.88 2244.16l234.93 4.14 4.24 220.3 4275.49 1.6 2.65 -2351.22c-38.8,-1.33 -76.98,-2.66 -116.08,-2.51 -35.94,0.14 -87.84,6.16 -118.31,-8.84l-5.65 -215.05c-194.88,0.82 -4206.78,-12.42 -4274.72,6.86l-2.54 2344.73z"/>
   <path class="fil0" d="M2292.72 853.44l114.72 -0.53 1.02 127.72c77.25,2.99 159.87,8.65 211.57,42.02 3.01,19.95 -30.1,128.09 -42.93,148.53 -88.11,-15.29 -307.94,-93.3 -311.25,57.34 51.68,110.78 287.96,84.17 375.62,255.94 36.54,71.58 18.79,177.87 -28.99,234.62 -71.01,84.36 -104.93,60.35 -198.86,110.62 -2.48,127.48 33.82,125.27 -119.72,115.9l-1.3 -115.66c-79.27,1.14 -182.53,-19.54 -243.77,-47.72l41.77 -155.4c63.42,18.87 105.96,42.9 191.04,47.7 121.51,6.85 104.61,-13.59 172.14,-48.79 1.19,-118.66 -54.2,-117.39 -163.95,-159.5 -166.06,-63.71 -313.35,-189.69 -194.71,-365.68 45.77,-67.9 105.7,-89.95 196.84,-118.93l0.77 -128.17zm-694.76 557.58c9.33,229.43 101.34,376.67 224.21,488.34 489.07,444.46 1284.71,113.29 1278.33,-499.02 -4.07,-390.08 -336.08,-694.75 -762.76,-689.08 -429.81,5.7 -754.28,343.19 -739.77,699.76z"/>
   <polygon class="fil0" points="4170.34,552.04 3593.72,555.16 3595.8,659.56 4053.53,659.56 4053.53,1088.95 4171.06,1088.96 "/>
   <polygon class="fil0" points="3569.91,2265.67 4145.07,2265.18 4146.42,1733.06 4030.42,1733.07 4026.29,2159.57 3566.04,2162.14 "/>
   <path class="fil0" d="M696.19 660.01c105.2,-1.2 390.73,17.31 467.58,-8.18l-3.58 -91.81c-61.45,-21.65 -477.03,-14.52 -571.25,-4.7l2.79 533.02 106.74 -6.69 -2.29 -421.63z"/>
   <path class="fil0" d="M591.52 1737.19c-9.94,83.53 -2.11,208.1 -2.16,296.46 -0.16,301.12 -87.29,231.51 380.58,231.43 200.71,-0.03 207.23,28.47 191.34,-97.97 -78.05,-20.83 -357.14,-4.89 -462.48,-6.84l-3.35 -425.18 -103.93 2.09z"/>
   <path class="fil0" d="M354 2474.84c1.79,2.36 5.87,1.91 7.4,5.29 6.31,13.81 82.56,7.25 98.47,7.05l3825.5 -0.23c20.69,0.06 38.87,1.32 58.64,1.99 13.02,0.45 22.3,2.69 34.17,0.68 26.96,-4.58 14.62,-2.81 25.81,-12.17l-4049.99 -2.6 3.28 -2138.66c-6.85,10.84 -7.35,1.36 -10.24,23.28l1.38 1040.83c0,138.58 -14.65,1023.01 5.58,1074.55z"/>
  </g>
 </g>
</svg>
