<?xml version="1.0" encoding="UTF-8"?>
<!DOCTYPE svg PUBLIC "-//W3C//DTD SVG 1.1//EN" "http://www.w3.org/Graphics/SVG/1.1/DTD/svg11.dtd">
<!-- Creator: CorelDRAW -->
<svg xmlns="http://www.w3.org/2000/svg" xml:space="preserve" width="40mm" height="40mm" version="1.1" style="shape-rendering:geometricPrecision; text-rendering:geometricPrecision; image-rendering:optimizeQuality; fill-rule:evenodd; clip-rule:evenodd"
viewBox="0 0 1153.84 1153.84"
 xmlns:xlink="http://www.w3.org/1999/xlink"
 xmlns:xodm="http://www.corel.com/coreldraw/odm/2003">
 <defs>
  <style type="text/css">
   <![CDATA[
    .fil0 {fill:#EC268F}
   ]]>
  </style>
 </defs>
 <g id="Camada_x0020_1">
  <metadata id="CorelCorpID_0Corel-Layer"/>
  <path class="fil0" d="M644.72 771.28c5.97,-14 104.99,-115.24 121.45,-124.14 13.18,6.4 36.25,32.73 47.85,44.71l134.66 133.27c17.45,16.42 30.06,30.9 45.83,46.34 33.9,33.18 74.69,60.01 73,106.72 -2.33,64.3 -73.4,128.13 -154.15,62.22 -34.4,-28.08 -228.5,-237.98 -268.64,-269.12zm-471.7 -631.97c18.37,11.26 37.77,21.82 53.61,35.01l-3.28 49.75 -52.92 1.66c-12.92,-21.16 -69.06,-101.86 -54.69,-111.44 13.04,-8.69 45.67,17.91 57.28,25.02zm465.19 256.94c-21.3,-106.23 -16.51,-137.36 34.92,-214.54 31.19,-46.8 100.12,-86.19 186.14,-84.28 -3.26,15.89 -21.49,29.66 -38.97,47.21l-123.05 123.78 138.14 142.37c15.92,15.9 28.82,33.28 43.77,46.47 35,-24.42 149.52,-157.21 175.96,-169.07 36.2,53.37 -36.01,247.83 -205.11,250.09 -81.79,1.09 -65.34,-40.83 -129.59,30.12l-140.24 140.16c-86.25,82.05 -191.01,198.13 -277.82,279.17 -25.79,24.08 -61.85,77.35 -109.82,79.94 -53.23,2.88 -97.15,-40.62 -96.24,-93.49 0.77,-44.92 55.08,-85.76 78.32,-109.9 30.82,-32.02 59.54,-61.91 91.21,-93.09 126.72,-124.79 243.45,-249.11 372.38,-374.94zm-638.21 -288.98l120.05 205.24 93.36 0.54c50.76,0.02 39.63,1.54 66.28,29.44 25.76,26.97 134.72,127.8 143.38,145.91 -5.04,13.49 -47.78,52.21 -58.53,63.19 -19.98,20.42 -39.16,39.35 -60.67,60.79l-246.71 247.45c-38.41,40.74 -65.79,117.29 -32.31,189.8 20.76,44.95 73.68,97.1 139.42,102.82 96.57,8.41 127.04,-33.33 169.18,-74.9 14.35,-14.16 231.53,-237.04 248.46,-245.96 43.02,22.4 250.07,272.81 329.11,307.67 57.69,25.44 123.34,15.92 167.87,-15.73 35.31,-25.09 71.44,-70.45 74.68,-137.62 3.58,-74.09 -31.73,-112.29 -65.69,-144.96 -25.67,-24.7 -205.88,-201.24 -213.16,-214.35 31.72,-16.34 164.77,-15.92 242.49,-172.08 36.4,-73.14 48.72,-178.62 11.74,-257.79l-36.56 -59.9c-0.47,-0.63 -1.5,-1.91 -1.89,-2.42 -0.39,-0.52 -1.24,-1.65 -1.91,-2.43 -13.55,6.25 -16.59,12.55 -27.1,23.56 -8.72,9.14 -15.64,15.27 -25.4,24.85 -25.41,24.95 -138.24,144.9 -158.02,152.62l-56.51 -61.92c13.45,-27.16 189.21,-181.39 204.23,-209.88 -31.25,-27.04 -139.56,-54.86 -201.23,-50.97 -130.62,8.24 -246.92,107.03 -276.87,230.55 -10.61,43.77 -10.54,69.76 -4.94,115.68 3.14,25.74 -51.4,65.57 -57.18,68.1l-157.09 -155.94c-24.42,-23.26 -15.14,-98.36 -14.25,-148.44 -45.51,-22.62 -180.3,-108.71 -205.54,-120.16 -26.85,18.08 -84.98,80.43 -108.72,107.27z"/>
 </g>
</svg>
