<?xml version="1.0" encoding="UTF-8"?>
<!DOCTYPE svg PUBLIC "-//W3C//DTD SVG 1.1//EN" "http://www.w3.org/Graphics/SVG/1.1/DTD/svg11.dtd">
<!-- Creator: CorelDRAW -->
<svg xmlns="http://www.w3.org/2000/svg" xml:space="preserve" width="39.491mm" height="39.1992mm" version="1.1" style="shape-rendering:geometricPrecision; text-rendering:geometricPrecision; image-rendering:optimizeQuality; fill-rule:evenodd; clip-rule:evenodd"
viewBox="0 0 1997.82 1983.05"
 xmlns:xlink="http://www.w3.org/1999/xlink"
 xmlns:xodm="http://www.corel.com/coreldraw/odm/2003">
 <defs>
  <style type="text/css">
   <![CDATA[
    .fil0 {fill:#EC268F}
   ]]>
  </style>
 </defs>
 <g id="Camada_x0020_1">
  <metadata id="CorelCorpID_0Corel-Layer"/>
  <g id="_2084307996176">
   <path class="fil0" d="M561.37 1552.9c16.75,0 91.93,2.57 104.4,-0.85l28.86 -8.3c4.36,-1.51 0.71,-0.08 4.42,-1.78 0.58,-0.26 2.17,-1.12 2.73,-1.4 0.42,-0.21 0.94,-0.5 1.36,-0.71 0.41,-0.21 0.94,-0.49 1.36,-0.7 0.42,-0.22 0.95,-0.49 1.37,-0.7l38.18 -25.79c13.85,-14.01 25,-23.32 35.45,-40.91l8.26 -16.51c0.55,-1.06 2.04,-3.77 2.16,-4.03 2.04,-4.47 2.37,1.39 2.62,-9.77l8.25 0c3.1,8.55 16.81,18.49 17.94,19.21l33 20.66c7.99,3.86 9.06,7.27 17.71,11.18 0.59,0.26 2.31,0.97 2.93,1.2l16.42 6.28c0.42,0.21 0.93,0.51 1.36,0.71l39.67 11.92c37.45,10.36 59.66,8.01 102.27,7.43l13.68 -2.83c6.92,-2.22 9.39,-0.59 16.22,-2.35l52.5 -17.68c0.41,-0.21 0.95,-0.49 1.36,-0.7l43.12 -22.93c0.35,-0.26 0.81,-0.64 1.17,-0.89l8.94 -5.51c2.29,-1.66 3.44,-2.77 4.69,-3.57 0.38,-0.24 0.92,-0.53 1.31,-0.76 7.89,-4.74 18.91,-12.93 21.97,-21.37l8.25 0 16.51 35.09c0.36,0.49 1.48,1.81 1.82,2.31 0.25,0.36 0.58,0.87 0.82,1.24 0.24,0.38 0.52,0.92 0.76,1.31l11.04 13.72c13.1,12.85 25.24,25.69 40.66,35.71 0.37,0.24 0.89,0.56 1.28,0.78l2.71 1.42c0.42,0.22 0.98,0.46 1.4,0.67l8.31 4.07c5.12,2.59 -2.34,-1.21 2.74,1.39l6.85 3.46c0.46,0.19 1,0.41 1.47,0.59l25.95 7.07c18.61,5.94 87.14,2.62 108.83,2.62 -2.01,4.98 -7.61,5.64 -12.44,8.2l-2.63 1.5c-1.83,1.17 -1.22,0.95 -3.5,2.69l-15.86 8.91c-2.95,1.75 -0.78,0.37 -3.66,2.53 -0.48,0.36 -1.75,1.52 -2.24,1.89 -2.88,2.16 -0.7,0.78 -3.66,2.53l-42.61 25.49c-0.41,0.22 -0.96,0.47 -1.38,0.68 -6.21,3.12 -12.65,4.57 -15.21,11.63l-16.51 0c-1.8,-4.46 -5.73,-4.1 -10.72,-5.79l-3.02 -1.11c-0.52,-0.15 -1.02,-0.37 -1.56,-0.51l-19.15 -3.55c-10.02,-3.31 -27.83,-3.56 -38.41,0.01l-4.37 1.83c-6.32,1.78 -11.38,0.32 -17.76,0.81 -10.29,0.79 -4.31,2.64 -24.71,4.18 -8.96,0.68 -3.55,2.52 -24.76,4.13 -17.28,1.31 0.13,1.99 -14.55,4.02 -8.4,1.16 -15.93,0.12 -24.03,2.8 -0.5,0.16 -0.98,0.42 -1.5,0.56 -7.02,1.93 -10.28,0.16 -24.77,4.13 -6.37,1.75 -11.11,0.06 -17.27,1.31 -20.08,4.07 4.51,1.35 -25.25,3.64 -8.99,0.69 -3.16,2.55 -24.71,4.18 -17.31,1.32 0.17,2.04 -14.58,3.99 -7.79,1.03 -9.23,-0.99 -17,1.58l-31.77 5.38c-7.77,2.57 -9.21,0.55 -17,1.58 -14.76,1.95 2.73,2.68 -14.58,3.99 -3.24,0.24 -6.91,-0.29 -10.18,0.14 -12.65,1.67 -7.8,3.34 -25.02,3.88 -7.35,0.23 -7.77,2.39 -14.77,3.8 -6.16,1.25 -10.9,-0.44 -17.27,1.31 -14.58,4 -17.88,2.24 -24.77,4.13 -14.29,3.93 -12.7,1.58 -25.53,3.36 -14.72,2.04 2.76,2.87 -14.57,4.01 -2.55,0.17 -8.31,-0.37 -10.32,0.01 -6.31,1.18 -4,-1.26 -6.18,4.14l-28.9 0c-1.96,-5.42 0.12,-3.18 -5.41,-6.98l-48.25 -28.11c-0.44,-0.21 -0.98,-0.44 -1.42,-0.65 -0.43,-0.21 -0.98,-0.44 -1.41,-0.65l-32.91 -20.75c-0.39,-0.23 -0.93,-0.51 -1.34,-0.73l-26.26 -15.02c-0.43,-0.21 -0.98,-0.44 -1.41,-0.66 -2.85,-1.44 -1.72,-0.71 -4,-2.19l-31.63 -19.97c-0.42,-0.21 -0.98,-0.45 -1.41,-0.65l-23.47 -13.68c-0.43,-0.21 -0.98,-0.45 -1.41,-0.66 -0.56,-0.28 -2.19,-1.09 -2.72,-1.41l-16.59 -10.23c-9.94,-5.28 -1.57,0.23 -6.76,-5.63zm206.38 -315.77c-1.2,-3.5 -0.15,-24.45 0.87,-28.03 5.29,-18.59 1.24,-9.9 3.37,-25.52l6.66 -24.3c0.16,-0.51 0.37,-1.02 0.52,-1.55l6.46 -20.37c7.78,-14.81 4.19,-13.27 13.7,-27.58l14.53 -24.68c0.23,-0.39 0.49,-0.95 0.73,-1.33 6.31,-9.94 38.68,-41.12 49.43,-47.57l8.36 -6.09c0.37,-0.24 0.89,-0.56 1.28,-0.78 0.53,-0.31 2.16,-1.13 2.72,-1.41l9.64 -4.8c1.68,-1.09 1.41,-1.09 3.5,-2.7l19.73 -9.16c0.5,-0.17 1.05,-0.35 1.53,-0.54l2.87 -1.25c0.43,-0.2 0.94,-0.5 1.36,-0.71l44.82 -12.97c4.63,-0.6 9.15,0.39 13.88,-0.57 5.34,-1.08 21.29,-8.65 40.27,-2.26l81.24 21.95c0.42,0.21 0.95,0.48 1.38,0.69l8.25 4.13c0.42,0.21 0.96,0.48 1.38,0.68l26.8 16.54c0.45,0.4 1.77,1.51 2.26,1.86 0.36,0.26 0.89,0.56 1.27,0.8 12.07,7.66 21.37,18.12 31.58,28.26l19.63 23.71c6.54,6.82 1.93,0.68 5.91,8.54l5.42 11.09c0.21,0.42 0.48,0.96 0.69,1.38l6.19 12.38c0.21,0.42 0.48,0.96 0.69,1.38l14.19 37.41c0.14,0.56 0.27,1.08 0.4,1.66l1.53 8.79c3.08,11.02 2.03,10 3.09,23.75l1.49 6.76c0.16,0.49 0.46,0.96 0.63,1.44l1.2 2.93c1.82,6.39 1.82,20.78 0,27.17l-1.83 4.36c-1.91,5.68 -0.66,14.68 -1.54,21.16l-1.92 6.34c-0.16,0.49 -0.44,0.98 -0.59,1.47l-28.31 72.82c-4.34,8.94 -6.72,8.84 -12.25,16.65 -0.25,0.36 -0.56,0.89 -0.79,1.27 -0.24,0.38 -0.5,0.94 -0.73,1.33l-8.93 11.71c-9.43,9.2 -19.04,22.38 -30.36,29.49l-7.83 4.55c-6.93,5.52 -6.45,7.03 -14.08,10.68l-11.66 6.92c-4.92,3.67 -0.03,1.11 -5.07,3.18 -2.71,1.12 -2.23,0.55 -4.84,1.36l-52.63 17.53c-0.5,0.16 -0.98,0.43 -1.47,0.59l-26 2.89c-12.26,3.45 -24.94,4.75 -37.39,0.57 -5.68,-1.91 -14.68,-0.66 -21.16,-1.54l-21.32 -5.51c-0.51,-0.16 -0.99,-0.42 -1.49,-0.58l-16.63 -4.01c-0.45,-0.18 -0.96,-0.47 -1.4,-0.67l-5.38 -2.87c-1.44,-0.76 -1.27,-0.66 -2.72,-1.41 -0.64,-0.33 -5.12,-2.68 -5.44,-2.82 -3.85,-1.73 0.17,-0.22 -4.45,-1.74 -3.09,-1.01 -3.66,-0.65 -6.46,-1.8l-8.51 -5.94c-6.32,-4.2 -12.69,-5.45 -18.18,-10.71 -2.52,-2.41 0.12,-0.36 -3.04,-3.15l-4.86 -3.39c-11.63,-6.83 -20.77,-18.05 -30.25,-27.54l-41.93 -65.39c-0.22,-0.41 -0.49,-0.94 -0.71,-1.36l-15.01 -63.41c-1.07,-16.32 -1.68,-2.73 -4.26,-10.18zm883.33 117.64l-383.88 0 2.62 -9.77c0.12,-0.24 1.62,-2.99 2.17,-4.03l6.17 -12.4c1.27,-3.36 0.82,-2.85 1.92,-6.34l11.47 -38.06c1.53,-7.74 -0.76,-10.83 1.86,-18.77 6.42,-19.42 3.92,-85.13 -2.87,-107.32l-7.28 -25.73c-0.17,-0.51 -0.34,-1.05 -0.51,-1.56l-9.54 -23.56c-2.23,-5.05 -2.35,-10.57 -0.68,-15.28 0.22,-0.64 1.05,-2.33 1.33,-2.91l3.79 -6.57c0.36,-0.49 1.47,-1.81 1.87,-2.26 1.74,-1.97 2.54,-2.48 5.22,-5.09 7.21,-7.03 12.99,-12.97 19.62,-19.6l31.61 -26.18c0.53,-0.31 2.16,-1.13 2.72,-1.41l81.66 -31.85c9.13,-1.91 17.29,-0.24 25.79,-3.11 4.62,-1.56 2.57,-1.3 8.74,-1.59l25.78 3.42c4,1.12 5.04,0.93 9.37,0.94l21.28 3.49c0.59,0.14 1.14,0.19 1.75,0.31l11.56 2.88c2.81,0.85 0.91,0.46 4.95,1.23l16.96 5.74c0.41,0.22 0.95,0.49 1.36,0.7l6.8 3.52c7.43,3.34 11.61,3.84 18.21,8.62l10.84 5.68c0.57,0.28 2.21,1.07 2.74,1.39l70.79 73.68c0.21,0.44 0.44,0.99 0.65,1.42l5.62 8.82c3.67,4.92 1.11,0.03 3.18,5.07l6.36 16.35c0.21,0.41 0.49,0.95 0.7,1.36l2.86 5.39c0.21,0.42 0.52,0.92 0.71,1.35l1.26 2.87c0.17,0.51 0.34,1.04 0.49,1.57l1.84 10.54c0.14,0.53 0.36,1.04 0.52,1.55l6.76 34.52c0.42,5.47 -0.52,-0.99 0.44,3.7 1.55,7.63 3.87,6.94 3.78,20.99l-2.77 26.28c-1.94,5.88 -0.56,13.81 -2.3,20.4l-3.82 14.75c-0.13,0.57 -0.26,1.1 -0.41,1.65l-4.02 16.62c-1.39,5.05 0.15,0.35 -1.77,4.42l-8.24 20.66c-0.26,0.59 -1.07,2.21 -1.38,2.75l-16.64 28.76zm-920.48 0l-383.88 0c-2.96,-8.19 0.17,0.36 -2.75,-5.5 -0.2,-0.4 -0.48,-0.96 -0.69,-1.38l-24.56 -49.74c-4.41,-12.58 -2.7,-11.43 -5.51,-25.45 -1.68,-8.36 -3.29,-5.45 -3.67,-14.9 -0.15,-3.67 0.36,-6.18 -0.4,-9.92l-1.01 -3.12c-0.16,-0.49 -0.46,-0.96 -0.63,-1.44l-1.2 -2.93c-2.12,-7.5 -1.85,-29.71 0.57,-36.91 2.84,-8.48 1.46,-16.39 4.11,-24.78l7.32 -29.83c0.13,-0.58 0.23,-1.13 0.38,-1.68 0.14,-0.53 0.32,-1.07 0.49,-1.57 0.17,-0.49 0.41,-1.01 0.6,-1.47l2.83 -5.42c0.22,-0.41 0.5,-0.94 0.71,-1.36l20.72 -41.2c0.24,-0.37 0.59,-0.86 0.84,-1.22l44.15 -48.72c2.64,-2.71 3.13,-3.52 5.1,-5.22l70.44 -36.87c5.25,-0.98 3.64,-0.19 8.62,-1.7l22.54 -6.35c3.23,-0.66 6.6,-0.43 9.91,-0.41l11.51 -0.87c10.07,-2.83 20.56,-5.2 31.42,-2.85l4.54 1.65c0.48,0.17 0.95,0.47 1.44,0.63 7.55,2.53 15.8,0.38 22.92,1.85l44.38 13.41c0.43,0.2 0.96,0.47 1.41,0.66 0.46,0.19 1,0.41 1.47,0.59 0.48,0.19 1.03,0.36 1.53,0.54 3.55,1.2 4.52,1.06 8,2.32 6.82,2.48 11.31,7.5 17.85,11.04 0.55,0.3 2.22,1.06 2.79,1.34l26.27 17.07c11.89,11.72 36.14,31.94 42.8,45.99 2.35,4.95 4.56,9.34 0.65,18.19 -0.2,0.46 -0.51,0.95 -0.72,1.39l-22.32 78.84c-0.59,13.57 -1.92,67.3 1.01,77.71l3.74 18.96c1.13,5.77 1.11,3.29 1.55,4.64 0.16,0.49 0.43,0.98 0.59,1.48 0.16,0.51 0.38,1.02 0.53,1.54 0.92,3.33 0.43,2.26 0.98,5.21l20.65 57.79zm41.28 -321.96l-8.26 0 -130.58 -92.32c-21.74,-7.19 -22.97,-14.18 -42.82,-33.54l-32.93 -55.82c-0.21,-0.41 -0.5,-0.94 -0.71,-1.35l-12.29 -39.3c-0.14,-0.57 -0.27,-1.1 -0.42,-1.64l-1.12 -3.01c-2.54,-7.55 -0.98,-14.33 -2.13,-22.63 -1.45,-10.47 -0.67,-2.68 -1.96,-6.3 -0.65,-1.84 -0.31,1.68 -1.65,-4.54 -0.52,-2.42 -0.53,-5.19 -0.58,-7.71 -0.44,-19.29 2.06,-16.64 3.89,-25.31 1.59,-7.54 -0.56,-15.63 1.85,-22.92 0.16,-0.49 0.46,-0.96 0.62,-1.44 0.17,-0.48 0.46,-0.96 0.62,-1.45 0.16,-0.5 0.4,-0.99 0.55,-1.51l31.23 -78.15c0.24,-0.37 0.59,-0.86 0.84,-1.22l9.08 -13.62c10.63,-13.66 24.87,-24.84 37.07,-37.22l38.46 -25.52c6.38,-4.6 13.44,-5.44 20.46,-8.43 0.45,-0.19 0.97,-0.46 1.4,-0.66l2.68 -1.46c0.41,-0.21 0.9,-0.54 1.32,-0.75 0.41,-0.21 0.91,-0.53 1.34,-0.73l26.26 -6.76c2.93,-0.56 1.86,-0.05 5.21,-0.99l26.38 -4.58c7.32,-2.42 25.79,-4.15 36.42,-2.59 14.59,2.13 -1.06,1.18 10.85,3.6 4.74,0.96 9.25,-0.03 13.88,0.57 9.85,1.28 5.1,2.19 12.77,3.74 13.49,2.74 25.36,5.69 37.56,11.97l17.74 7.03c0.43,0.25 2.21,1.86 3.41,2.77l28.35 17.05c12.51,7.94 26.41,25.87 37.56,36.74l16.1 21.05c0.24,0.37 0.56,0.89 0.78,1.28l31.06 78.33c2.68,8.38 1.5,21.36 4.05,28.97 1.7,5.07 3.88,19.53 2.6,28.16 -1.85,12.47 -1.4,0.28 -3.62,10.83 -0.56,2.66 -0.48,5.03 -0.49,7.77 -0.05,13.49 -4.68,24.78 -7.62,37.79l-7.45 21.44c-6.77,13.02 -2.86,10.66 -12.3,24.85l-4.81 9.64c-3.92,7.89 -8.51,10.83 -14.58,20.5l-8.87 9.7c-7.23,7.09 -16.35,20.17 -25.6,23.93l-39.77 15.96c-1.17,0.58 -2.52,1.26 -4.13,2.06l-9.63 4.82c-0.48,0.24 -2.27,1.13 -2.75,1.37l-35.79 22c-0.39,0.23 -0.96,0.48 -1.36,0.71l-14.11 12.71c-5.78,4.5 4.1,-2.45 -2.46,1.67 -0.38,0.24 -0.94,0.5 -1.34,0.73 -0.39,0.23 -0.96,0.48 -1.36,0.7l-3.96 2.23c-0.83,0.58 -3.58,3.09 -4.38,3.88l-13.79 17.16c-0.77,1.22 -1.94,2.46 -3.57,4.69 -2.31,3.17 -1.62,0.72 -3.2,5.06zm462.3 0l-8.26 0c-2.89,-7.99 0.12,0.18 -2.69,-5.56 -0.27,-0.54 -1.04,-2.24 -1.34,-2.79l-2.29 -3.9c-6.98,-9.76 -16.95,-16.32 -26.54,-22.99l-9.37 -9.21c-0.44,-0.41 -1.67,-1.6 -2.16,-1.97l-14.9 -9.87c-0.37,-0.24 -0.92,-0.53 -1.3,-0.76l-46.79 -25.44c-0.42,-0.21 -0.94,-0.5 -1.35,-0.71 -0.41,-0.21 -0.95,-0.49 -1.36,-0.71 -0.41,-0.21 -0.95,-0.49 -1.36,-0.7l-11.22 -5.3c-0.51,-0.17 -1.07,-0.31 -1.58,-0.48l-9.35 -3.03c-0.49,-0.17 -1.03,-0.37 -1.52,-0.54l-71.26 -13.36c0.26,-11.88 0.99,-6.43 4.77,-13.81l26.19 -56.36c0.17,-0.5 0.38,-1.02 0.55,-1.52l6.62 -24.33c0.15,-0.52 0.36,-1.03 0.53,-1.54l4.69 -22.14c4.29,-12.41 3.47,-76.75 0.62,-85.26 -4.17,-12.44 -1.18,-15.64 -4.71,-26.24l-17.99 -52.42c-5.56,-19.6 31.08,-47.1 41.68,-57.96 8.6,-8.81 19.58,-15.28 30.69,-20.9 7.94,-4.02 10.17,-8.43 19.23,-11.73l53.68 -16.5c8.76,-2.88 14.52,-0.08 22.92,-1.85 8.87,-1.87 18.35,-6.48 33.02,-3.3 6.82,1.48 10.42,3.6 21.13,3.64l15.35 3.22c0.54,0.16 1.08,0.29 1.64,0.42 2.48,0.58 3.17,0.36 5.38,0.81l45.73 16.18c8.37,2.64 13.35,7.74 21.32,11.7 6.74,3.34 11.4,9.49 17.81,13.15l13.43 11.34c14.33,14.49 27.8,26.77 38.8,43.75l2.85 5.4c3.26,6.72 8.22,11.41 10.62,18.28l7.25 17.52c4.43,8.45 5.37,15.85 8.12,24.9l5.62 31.53c0.93,12.22 1.19,5.2 2.69,9.69 2.37,7.07 1.95,17.53 1.59,25.54 -0.44,9.82 -4.08,10.58 -4.39,20.38l-1.95 18.69c-3.14,9.1 -3.09,18.63 -7.1,30.05 -0.17,0.5 -0.35,1.05 -0.54,1.53l-17.77 35.89c-1.48,2.28 -0.75,1.14 -2.2,4l-1.95 4.24c-0.06,0.13 -1.89,3.83 -2.06,4.12 -1.74,2.93 -0.41,0.8 -2.53,3.66l-46.67 48.27 -24.45 8.57c-0.41,0.21 -0.91,0.53 -1.33,0.73l-2.77 1.35c-0.47,0.19 -1,0.41 -1.48,0.59 -0.49,0.18 -1.04,0.35 -1.54,0.52 -0.52,0.17 -1.09,0.29 -1.61,0.45l-47.55 26.75c-2.06,1.33 -1.12,0.84 -3.56,2.64l-12.44 8.2c-2.25,1.94 -4.07,4.34 -6.05,6.33 -1.69,1.7 0.05,0.5 -3.18,3.01l-34.05 36.13zm-231.15 -462.3l-8.26 0c-3.11,-8.6 -18.81,-27.23 -27.53,-32.32 -2.38,-1.39 -1.38,-0.46 -4.06,-2.14l-31.66 -24.06c-0.38,-0.23 -0.93,-0.52 -1.3,-0.76 -0.37,-0.24 -0.88,-0.57 -1.24,-0.82l-7.09 -5.29c-0.39,-0.23 -0.93,-0.51 -1.34,-0.73l-44.03 -22.01c-0.44,-0.2 -0.97,-0.46 -1.42,-0.65l-15.51 -5.13c-15.64,-4.9 -26.75,-20.75 -38.23,-31.94l-19.19 -28.28c-7.12,-14.67 -4.01,-2.35 -11.12,-21.9l-2.62 -5.64c-0.21,-0.41 -0.5,-0.94 -0.71,-1.35l-9.09 -25.99c-0.14,-0.45 -1.01,-2.53 -1.15,-2.98l-3.59 -14.97c-2.54,-7.56 -0.98,-14.34 -2.13,-22.64 -1.57,-11.32 -6.69,-14.36 -3.93,-33.03 2.15,-14.49 1.14,0.95 3.62,-10.83 2.82,-13.42 -1.8,-12.7 7.18,-42.35l1.7 -8.62c0.12,-0.63 0.15,-1.18 0.28,-1.79 0.13,-0.58 0.23,-1.13 0.38,-1.68 0.15,-0.54 0.32,-1.07 0.49,-1.57l1.27 -2.85c0.2,-0.42 0.52,-0.92 0.73,-1.34 0.21,-0.41 0.54,-0.91 0.75,-1.32l19.24 -38.55c0.27,-0.57 1.04,-2.24 1.34,-2.79 0.22,-0.4 0.5,-0.94 0.73,-1.34 0.23,-0.39 0.54,-0.91 0.78,-1.28 0.24,-0.37 0.59,-0.86 0.84,-1.22l52.82 -56.57 17.79 -11.1c0.01,-0.01 2.82,-1.3 2.83,-1.3l16.31 -10.51c0.42,-0.21 0.96,-0.47 1.4,-0.67l55.13 -17.1c7.08,-2.36 17.37,-1.48 23.37,-3.46 5.42,-1.79 -3.68,-0.2 5.97,-2.28l30.45 -0.31c14.59,2.13 -1.06,1.18 10.85,3.6 10.01,2.03 7.75,-0.76 23.26,3.57 0.54,0.16 1.08,0.29 1.64,0.42 13.41,3.16 25.7,5.21 37.95,11.58l8.34 4.04c3.35,1.21 2.25,0.56 4.82,1.37l45.36 28.94 62.53 79.88c1.22,3.36 0.81,3.07 1.85,6.4l12.2 39.4c1.55,7.63 2.44,2.93 3.77,12.74 0.88,6.48 -0.36,15.48 1.54,21.16 2.39,7.12 3.44,26.56 0.63,34.46 -0.74,2.07 -0.28,-1.95 -1.65,4.54 -1.89,8.95 -0.21,17.04 -3.03,25.87l-4.66 18.04c-0.15,0.55 -0.28,1.08 -0.41,1.65l-1.43 8.89c-0.14,0.53 -0.32,1.07 -0.49,1.57 -0.17,0.49 -0.41,1.01 -0.6,1.47l-7.07 13.56c-0.21,0.42 -0.49,0.94 -0.69,1.38 -0.2,0.45 -0.46,0.97 -0.64,1.42l-1.1 3.03c-1.01,3.09 -0.65,3.66 -1.8,6.46l-20.78 30.81c-4.52,5.69 2.44,-4.04 -1.68,2.45l-4.54 7.84c-5.05,6.51 -26.44,28.58 -32.8,31.17l-9.49 2.89c-0.5,0.17 -1.02,0.38 -1.52,0.55l-12.31 4.2c-0.07,0.04 -5.32,2.85 -5.38,2.88 -0.33,0.15 -2.51,1.1 -2.89,1.23 -0.49,0.18 -1.04,0.35 -1.55,0.52l-42.65 23.39c-0.36,0.25 -0.88,0.58 -1.24,0.82l-59.05 48.27 -5.5 11.01zm-255.92 -107.32c-18.74,0 -19.07,3.68 -30.93,4.16l-40.33 9.2c-0.5,0.17 -1.03,0.36 -1.52,0.54 -1.46,0.5 -1.57,0.61 -3.03,1.1 -9.5,3.21 -36.3,13.86 -43,18.92l-10.56 5.95c-0.43,0.21 -0.99,0.44 -1.41,0.65l-7.51 4.88c-2.04,1.54 -1.81,1.52 -3.55,2.65 -2.55,1.65 -1.67,0.81 -3.97,2.22l-41.04 31.19c-3.04,3.09 -3.05,3.24 -6.13,6.25 -6.47,6.33 -9.82,14.33 -16.45,20.7l-28.56 41.61c-7.52,15.49 -2.65,-1.39 -11.12,21.9 -0.18,0.48 -0.39,1.02 -0.58,1.48l-26.45 82.94c-0.46,2.16 -0.47,3.42 -0.56,5.63 -0.68,15.67 0.15,33.72 0.15,49.68 -0.01,35.58 2.11,22.89 4.2,43.26 1.12,10.96 1.21,5.57 2.54,9.84 5.13,16.4 7.79,30.41 15.33,46.58 1.78,3.8 0.25,-0.11 1.79,4.41 0.81,2.41 0.65,2.64 1.34,4.86 0.16,0.53 0.3,1.08 0.47,1.6l17.13 30.34c2.03,4.47 2.36,-1.4 2.62,9.77 -20.41,0 -14.82,0.71 -29.38,3.64l-17.53 3.11c-16.72,5.24 -30.12,7.65 -46.58,15.33l-10.86 3.59c-0.5,0.17 -1.05,0.35 -1.53,0.53l-5.62 2.64c-0.42,0.21 -0.94,0.5 -1.36,0.71 -0.42,0.21 -0.95,0.48 -1.37,0.69 -0.42,0.21 -0.96,0.47 -1.38,0.68l-28.72 16.68c-0.58,0.42 -2.14,1.86 -3.26,2.93l-11.95 8.69c-0.38,0.24 -0.91,0.54 -1.27,0.79 -2.5,1.75 -4.39,3.97 -6.35,6.03 -5.81,6.12 -13.59,9.24 -19.67,15.41 -11.88,12.06 -16.56,21 -21.52,25.95l-12.63 16.26c-3.88,5.48 -8.56,8.97 -11.57,15.26l-7.78 12.86c-5.95,7.93 -14.44,29.59 -18.26,39.53l-7.13 21.76c-0.17,0.49 -0.41,1 -0.57,1.49l-6.19 28.9c-1.67,16.14 -4.05,3.74 -4.05,43.42 0,14.62 -0.76,31.21 -0.15,45.56 0.26,6.17 0.07,4.17 1.58,8.74l8.26 37.15c0.15,0.51 0.38,1.02 0.55,1.51l15.29 38.37c3.71,7.69 2.87,16.17 11.62,19.34l0 8.26 -29.94 27.85c-8.6,8.6 -82.29,78.48 -85.64,87.72l-152.73 0 0 66.04c16.99,0 166.52,3.34 179.09,-2.53l6.54 -3.77c11.55,-8.46 90.61,-89.59 112.59,-112.37l18.01 -10.88c17.59,-6.05 167.86,-2.52 189.42,-2.52 70.86,0 141.72,0 212.58,0 -0.26,11.57 -5.57,13.82 -10.89,22.13l-43.18 35.25 -29.92 7.23c-4.25,1.41 -0.67,0.98 -6.74,1.51 -25.42,2.21 -227.61,-0.08 -264.25,-0.08l0 66.04c15.63,0 46.52,-3.55 59.38,2.54 0.58,0.27 2.16,1.12 2.7,1.43l13.53 9.17c0.42,0.22 0.98,0.45 1.41,0.66l39.87 24.11c0.42,0.21 0.98,0.45 1.41,0.65l6.96 3.36c0.39,0.23 0.91,0.54 1.28,0.78 0.37,0.24 0.86,0.59 1.22,0.84 0.08,0.06 2.32,1.98 3.4,2.79l54.68 32c4.02,2.17 1.88,0.98 3.83,2.36 0.45,0.31 5.17,4.14 5.78,4.54l28.88 16.53c0.43,0.21 0.98,0.45 1.41,0.66l35.63 22.16c0.42,0.21 0.98,0.45 1.41,0.66l23.47 13.68c0.43,0.21 0.98,0.44 1.41,0.66 0.56,0.28 2.19,1.09 2.72,1.41l71.47 44.1c0.24,0.15 3.97,2.01 4.11,2.08l15.07 7.63c6.93,3.54 18.54,3.64 27.78,3.48 4.16,-0.08 5.5,0.06 9.31,-1.02l2.93 -1.2c5.51,-1.95 16.29,-1.18 23.33,-3.5 5.7,-1.89 -4.1,-0.95 7.74,-2.59 3.67,-0.51 8.64,0.12 12.38,0 11.26,-0.35 6.96,-2.74 26.73,-4.23 6.41,-0.49 9.62,-3.61 16.51,-4.13 19.15,-1.45 15.51,-3.71 26.8,-4.16l11.54 -0.84c0.52,-0.14 1,-0.4 1.5,-0.56 0.49,-0.16 0.96,-0.46 1.44,-0.63 7.73,-2.73 14.82,-1.09 22.6,-2.17 13.58,-1.88 -1.58,-3.32 16.59,-4.05l55.83 -8.14c4.34,-0.02 5.38,0.18 9.37,-0.95l2.93 -1.2c5.52,-1.94 16.29,-1.18 23.33,-3.5 5.7,-1.88 -4.11,-0.94 7.74,-2.58 2.93,-0.41 7.23,-0.02 10.29,-0.03 4.34,-0.02 5.38,0.18 9.37,-0.95l7.49 -2.83c7.67,-1.55 10.8,0.76 18.77,-1.87 5.83,-1.92 -4.21,-0.97 7.77,-2.55 3.85,-0.51 8.25,0.23 12.1,-0.28 13.68,-1.81 -1.51,-3.53 16.54,-4.1l14.14 -0.3c6.4,-1.35 2.57,-0.96 4.54,-1.65 6.3,-2.22 11.79,-1.33 18.43,-2.21 13.62,-1.8 -1.55,-3.29 16.62,-4.02l14.47 -2.03c8.41,-2.94 16.37,-1.16 24.77,-4.13 13.31,-4.7 43.35,-3.75 55.25,0.47l38.27 19.52c5.96,3.69 8.25,9.38 11.98,14.85 0.52,0.76 3.87,4.97 4.45,5.87l10.81 20.15c0.17,0.5 0.38,1.02 0.55,1.51l2.52 18.12 -57.31 8.74c-6.14,1.23 -2.97,1.03 -4.61,1.58l-16.03 2.54c-5.77,1.13 -3.29,1.11 -4.64,1.55l-10.04 2.34c-4,0.81 -1.95,0.32 -4.93,1.26l-4.47 1.73c-5.13,1.32 -6.42,0.42 -11.27,1.11 -4.84,0.69 -2.99,0.62 -4.95,1.23l-55.04 11.01c-13.71,1.41 -17.22,5.3 -29.45,7.7 -4.27,0.83 -7.15,0.11 -11.42,0.97 -12.19,2.44 2.97,0.72 -9.22,3.16 -4.27,0.85 -7.14,0.12 -11.41,0.97 -12.2,2.44 2.97,0.72 -9.23,3.16 -4.27,0.85 -7.14,0.12 -11.41,0.97 -12.19,2.44 2.97,0.71 -9.22,3.16 -4.26,0.85 -7.14,0.13 -11.42,0.97 -12.23,2.4 -15.74,6.29 -29.45,7.7 -6.74,0.69 -4.53,-0.47 -10.86,1.52l-49.14 10.71c-4.85,0.69 -6.13,-0.2 -11.27,1.12 -0.53,0.14 -1.02,0.38 -1.53,0.54l-217.51 46.66c-1.97,0.6 -0.22,0.55 -4.97,1.22l-12.78 1.66c-12.23,3.85 -31.27,5.03 -42.73,8.87l-56.34 11.77c-10.23,3.23 -28.69,6.9 -42.71,6.82 -8.39,-0.04 -16.42,0.87 -23.35,-1.46 -10.77,-3.61 -12.47,-1.26 -21.64,-3.12 -9.35,-1.89 -3.93,-2.4 -21.07,-3.7 -16.23,-1.23 0.03,-3.41 -18.54,-4.16 -10.32,-0.41 -12.21,-2.82 -20.81,-3.96l-21.37 -3.39c-5.11,-1.4 -6.36,-0.64 -11.54,-0.84 -9.97,-0.4 -10.6,-3.79 -20.57,-4.19 -9.72,-0.39 -12.13,-2.81 -20.81,-3.96 -3.85,-0.51 -8.25,0.23 -12.1,-0.28l-20.81 -3.96c-17.87,-0.71 -2.71,-3.47 -20.58,-4.19 -14.35,-0.57 -14.98,-2.88 -30.99,-4.09 -12.2,-0.93 -5.25,-1.23 -9.69,-2.69 -8.32,-2.74 -13.56,-0.14 -21.88,-2.88 -11.02,-3.62 -12.48,-1.26 -21.65,-3.12 -9.35,-1.89 -3.93,-2.4 -21.07,-3.7 -12.2,-0.92 -5.25,-1.23 -9.69,-2.69 -6.59,-2.17 -15.31,-0.71 -21.89,-2.87 -4.45,-1.46 2.5,-1.77 -9.69,-2.69l-33.02 -4.12c-12.2,-0.93 -5.25,-1.23 -9.69,-2.7 -8.33,-2.74 -13.56,-0.13 -21.89,-2.87 -4.44,-1.46 2.5,-1.77 -9.69,-2.69 -17.14,-1.3 -11.72,-1.81 -21.07,-3.7 -9.17,-1.86 -10.63,0.51 -21.65,-3.12 -6.58,-2.17 -15.3,-0.71 -21.89,-2.88 -11.01,-3.63 -12.47,-1.26 -21.65,-3.12 -12.29,-2.49 3.21,-0.83 -9.12,-3.27 -4.64,-0.92 -8.05,0.1 -12.11,-0.28 -12.56,-1.15 -5.6,1.91 -8.1,-4.28l-20.64 0c0,2.97 0.21,4.89 -0.43,7.82l-1.63 4.56c-2.8,8 -0.87,15.34 -3.5,23.33 -2.65,8.06 -1.28,15.37 -3.45,23.38 -2.24,8.3 0.22,-2.96 -3.37,6.95l13.82 2.69c7.79,2.56 9.21,0.55 17,1.58 8.99,1.19 1.22,2.35 22.85,3.99 5.48,0.41 -1,-0.52 3.7,0.43 9.34,1.89 0.32,2.13 21.07,3.7l30.32 6.82c7.35,2.42 9.13,1.07 17.25,1.33 3.98,0.12 3.68,-0.04 7.28,0.97 0.51,0.15 1,0.4 1.5,0.57 0.48,0.16 0.96,0.46 1.43,0.63 7.06,2.49 13.23,1.09 20.21,2.49 8.3,1.67 5.98,2.9 14.87,3.7l8.87 1.45c0.49,0.16 0.96,0.46 1.44,0.62l22.61 2.16c14.68,2.03 -2.73,2.71 14.55,4.02 19.85,1.5 12.52,2.62 22.85,3.99l17 1.58c5.72,1.88 -3.88,0.26 5.99,2.26 6.16,1.24 10.9,-0.45 17.27,1.3l4.38 1.82c6.63,2.19 11.7,0.7 26.27,4.69l23.27 3.56c8.55,2.82 12.97,0.25 24.76,4.13 7.79,2.56 9.21,0.55 17,1.58 8.99,1.19 1.22,2.35 22.85,3.99 5.48,0.41 -1,-0.52 3.7,0.43 9.34,1.89 0.33,2.12 21.07,3.7 17.31,1.31 -0.18,2.04 14.58,3.99 7.79,1.03 9.22,-0.99 17,1.57 6.21,2.04 18.19,1.95 26.21,4.76l50.97 8.88c7.78,2.56 9.21,0.56 17,1.58 14.46,1.91 -2.42,2.14 14.67,3.92l15.23 3.34c8.28,2.33 27.58,2.02 36.19,0.76 14.33,-2.09 -2.36,-2.2 14.62,-3.95 14.21,-1.47 20.75,-6.09 35.23,-8.11l34.87 -6.41c9.25,-3.1 15.21,-2.31 20.64,-4.13l51.38 -10.54c11.7,-1.66 2.35,-0.72 7.86,-2.46l93 -18.44c8.36,-1.67 6.05,-2.84 14.93,-3.64l52.08 -11.9c3.75,-0.73 6.06,-0.19 9.62,-0.7 14.27,-2.03 -1.98,-2.1 14.74,-3.83l13.74 -2.77c9.13,-3.02 25.71,-3.08 35.31,-1.02 8.43,1.81 6.03,2.92 14.85,3.72 4.26,0.38 3.01,-0.24 7.35,0.91 0.53,0.14 1.02,0.38 1.52,0.55 0.5,0.16 0.97,0.45 1.45,0.61l12.31 2.14c9.99,1.02 -4.26,-1.16 3.72,0.4l95.34 20.23c6.43,0.66 1.93,-0.16 6.9,1.36l7.87 2.45c3.4,0.69 3.29,0.19 7.03,1.23l198.13 41.28c0.52,0.15 1.03,0.36 1.54,0.53 13,4.15 37.43,3.54 48.35,-0.07 8.52,-2.82 12.98,-0.25 24.77,-4.13 7.78,-2.56 9.21,-0.55 16.99,-1.58 14.76,-1.95 -2.73,-2.68 14.58,-3.99 22.87,-1.73 11.72,-3.32 30.99,-4.09l10.29 -2.09c2.18,-0.76 -2.09,-0.29 4.56,-1.63 9.2,-1.86 10.97,-0.35 23.14,-3.68 7.05,-1.93 10.26,-0.15 24.77,-4.13 6.36,-1.75 11.11,-0.06 17.27,-1.31 8.32,-1.68 5.38,-3.35 14.84,-3.73 15.39,-0.62 16.49,-2.99 30.99,-4.09 17.31,-1.32 -0.17,-2.04 14.58,-3.99 7.79,-1.03 9.22,0.98 17,-1.58l30.76 -6.39c6.97,-1.41 13.15,-0.02 20.21,-2.49 7.12,-2.49 12.91,-1.01 20.21,-2.49l4.56 -1.63c6.64,-2.33 11.85,-1.34 18.43,-2.21 8.98,-1.18 1.22,-2.35 22.85,-3.99l24.76 -4.13c17.31,-1.31 -0.17,-2.04 14.58,-3.99 7.79,-1.03 9.22,0.99 17,-1.57 6.21,-2.05 18.19,-1.95 26.21,-4.76l37.15 -6.19c3.13,-0.09 4.66,0.21 7.83,-0.43l30.76 -6.38c8.55,-2.82 12.97,-0.25 24.76,-4.13 7.77,-2.56 9.2,-0.57 17,-1.58 14.91,-1.94 -2.68,-3.6 14.59,-3.99l0 -4.12c-5.54,-2.24 -2.05,1.25 -3.78,-4.48 -0.71,-2.35 -0.28,-7.26 -0.36,-9.96l-8.25 -47.48 -20.64 0c-3.19,7.9 -7.91,2.24 -22.07,6.82 -6.57,2.12 -11.61,0.41 -18.77,1.86 -8.59,1.74 -8.78,3.26 -19.04,3.67 -2.61,0.11 -3.1,-0.07 -5.73,0.46 -8.58,1.74 -8.78,3.26 -19.03,3.67 -2.61,0.11 -3.1,-0.07 -5.74,0.46 -8.58,1.74 -8.78,3.26 -19.03,3.67 -2.61,0.11 -3.1,-0.07 -5.73,0.46 -8.59,1.74 -8.78,3.26 -19.03,3.67 -11.72,0.47 -13.11,3.66 -24.77,4.13 -11.71,0.47 -13.11,3.66 -24.77,4.13 -11.71,0.47 -13.11,3.66 -24.76,4.13l-11.73 2.72c-6.61,2.18 -5.66,1.11 -13.04,1.41 -2.61,0.1 -3.1,-0.08 -5.73,0.46 -8.58,1.74 -8.78,3.25 -19.03,3.67 -2.61,0.1 -3.1,-0.08 -5.73,0.46 -8.59,1.74 -8.78,3.25 -19.04,3.67 -11.71,0.47 -13.11,3.66 -24.76,4.13l-36.5 6.85c-9.77,3.26 -18.91,0.9 -28.91,4.11l-8.86 1.45c-11.63,1.05 -13.22,3.64 -24.8,4.1 -11.71,0.47 -13.11,3.66 -24.76,4.13l-11.73 2.72c-6.61,2.18 -5.66,1.11 -13.04,1.41 -2.61,0.11 -3.1,-0.07 -5.73,0.46 -9.9,2.01 -0.12,0.3 -5.99,2.26 -9.54,3.19 -17.81,0.16 -27.47,3.49 -0.48,0.17 -0.96,0.46 -1.45,0.62 -0.5,0.16 -0.99,0.41 -1.51,0.55l-13.06 1.39c-8.64,1.74 -8.86,3.2 -19.09,3.61 -2.61,0.1 -3.1,-0.07 -5.73,0.46 -15.79,3.2 -11.18,3.54 -33.47,3.72 -15.8,0.13 -15.45,-1.69 -25.23,-3.66 -5.19,-1.04 -7.65,0.04 -13.06,-1.39l-60.76 -13.54c-0.49,-0.16 -0.96,-0.46 -1.45,-0.61l-118.25 -22.09 0 -8.26c3.83,0 10.88,0.4 14.35,-0.1 9.92,-1.44 1.49,-1.65 10.91,-3.54l188.92 -38.1c14.75,-2.78 29.83,-9.71 35.74,-24.11 4.84,-11.77 2.55,-31.25 2.02,-43.68l-2.77 -11.68c-1.66,-5.19 -1.06,-6.66 -2.45,-11.99l-5.8 -16.9c-0.76,-2.27 -1.05,-3.57 -1.93,-6.33l-1 -3.13c-0.18,-0.48 -0.38,-1.02 -0.58,-1.49l-17.07 -26.27c-2.77,-3.94 -1.16,-4.85 -5.7,-6.68l0 -8.26c0.48,-0.17 1.16,-1.09 1.38,-0.68l48.08 -28.28c0.41,-0.23 0.96,-0.47 1.38,-0.68l15.42 -9.34c0.35,-0.25 0.84,-0.61 1.22,-0.84l40.06 -23.92c0.36,-0.25 0.85,-0.6 1.22,-0.84l67.15 -40.17 15.92 -2.66c14.49,0.07 28.97,0.12 43.46,0.12l0 -66.04c-70.17,0 -140.34,0 -210.51,0 -18.09,0 -39.87,3.34 -57.38,-0.41 -5.97,-1.27 -2.99,-1.1 -4.55,-1.64 -1.97,-0.68 1.85,-0.29 -4.6,-1.59l-26.99 -6.03c-0.48,-0.18 -1.02,-0.39 -1.49,-0.58l-19.13 -11.82c-8.38,-5.32 -14.27,-13.76 -19.44,-21.84 -4.79,-7.48 -10.68,-12.51 -10.89,-22.13 16.92,0 384.17,-2.69 397.5,0.82 5.47,1.44 13.82,3.6 19.52,9.38 0.29,0.3 0.7,0.76 1,1.07 0.29,0.3 0.69,0.77 0.99,1.07l106.24 106.34c9.69,9.94 17.56,13.63 31.92,13.48l161.06 -0.08 0 -66.04 -152.73 0c-3.68,-10.18 -87.54,-89.55 -100.11,-102.15l-15.47 -13.43 0 -8.26c3.67,-1.33 6.2,-4.06 9.2,-13.5l12.95 -30.38c0.17,-0.5 0.38,-1.02 0.55,-1.52l3.07 -9.31c0.17,-0.49 0.39,-1.01 0.56,-1.5 0.22,-0.63 0.93,-2.35 1.12,-3l2.94 -13.57c1.34,-4.27 1.42,1.12 2.54,-9.84 1.2,-11.73 3.13,-7.25 4.28,-20.48l0 -70.33c-1.41,-16.12 -3.5,0.06 -4.23,-18.47l-5.53 -29.55c-0.15,-0.51 -0.38,-1.02 -0.55,-1.51 -0.16,-0.49 -0.4,-1 -0.57,-1.49l-12.51 -32.89c-0.19,-0.49 -0.37,-1.04 -0.54,-1.53 -0.17,-0.51 -0.31,-1.07 -0.47,-1.59 -0.68,-2.17 -0.54,-2.48 -1.34,-4.86 -0.17,-0.5 -0.35,-1.05 -0.54,-1.53 -0.17,-0.48 -0.39,-1.01 -0.59,-1.47l-22.74 -37.11c-0.24,-0.39 -0.5,-0.95 -0.73,-1.34 -0.24,-0.38 -0.52,-0.93 -0.76,-1.3l-15.02 -20.07c-7.15,-6.79 -11.99,-16.47 -24.68,-28.98l-42.7 -31.6c-0.38,-0.23 -0.93,-0.52 -1.3,-0.76l-75.3 -36.15c-0.51,-0.17 -1.05,-0.35 -1.55,-0.52l-18.07 -4.63c-0.5,-0.16 -0.99,-0.43 -1.48,-0.59 -11.95,-3.9 -35.29,-6.16 -45.43,-6.16l15.89 -31.57c0.53,-0.87 1.99,-3.76 2.13,-4.06l8.19 -20.71c0.2,-0.44 0.47,-0.96 0.65,-1.41l15.87 -60.49c1.46,-4.53 -0.24,1.61 1.24,-2.89 0.67,-2.02 0.49,0.94 1.33,-4.86 1.7,-11.68 1.43,-74.73 -1.33,-83.09 -1.46,-4.41 -1.43,1.79 -2.62,-9.76l-35.16 -94.86 -19.27 -30.26c-4.7,-7.91 -11.82,-13.31 -17.25,-21.97 -6.68,-10.64 -17.33,-17.37 -27.29,-24.3 -4.97,-3.46 -7.74,-8.58 -12.71,-12.06l-13.71 -8.99c-0.37,-0.24 -0.92,-0.53 -1.3,-0.76l-46.79 -25.44c-0.42,-0.21 -0.94,-0.5 -1.35,-0.71l-50.75 -17.36c-0.64,-0.21 -2.28,-1 -2.93,-1.2 -8.39,-2.65 -13.67,-0.14 -21.91,-2.86l-22.08 -2.69c0.26,-11.69 1.55,-7.44 5.46,-15.17 0.21,-0.42 0.48,-0.96 0.68,-1.38 0.21,-0.42 0.46,-0.98 0.67,-1.4 0.04,-0.07 2.06,-4.07 2.08,-4.11 6.18,-10.38 8.52,-12.38 12.64,-24.51l9.41 -23.6c0.17,-0.5 0.38,-1.02 0.55,-1.52 0.17,-0.49 0.37,-1.02 0.54,-1.52l4.56 -14.02c2.16,-9.7 3.82,-8.81 4.67,-20.09 1.68,-22.54 4.14,-18.12 4.13,-47.47 -0.01,-15.74 2.49,-42.59 -2.05,-55.73l-11.31 -46.49c-5.53,-16.51 -12.8,-35.54 -22.34,-49.89l-20.59 -33.07c-0.24,-0.38 -0.53,-0.92 -0.76,-1.31 -5.05,-8.43 -12.32,-13.27 -18.27,-20.94 -7.54,-9.71 -12.51,-19.41 -23.74,-25.79 -6.76,-3.84 -10.44,-9.92 -16.67,-14.29l-2.6 -1.53c-0.39,-0.24 -0.96,-0.48 -1.36,-0.71l-84.08 -43.88c-0.49,-0.17 -1.03,-0.37 -1.52,-0.54 -0.51,-0.17 -1.05,-0.34 -1.56,-0.51l-9.22 -3.16c-0.52,-0.16 -1.04,-0.35 -1.57,-0.49l-11.99 -2.45c-0.64,-0.21 -2.28,-1 -2.93,-1.2l-24.78 -4.11c-0.5,-0.17 -0.98,-0.42 -1.5,-0.57 -7.56,-2.15 -66.41,-2.33 -75.08,-0.46 -9.66,2.08 -4.25,2.46 -21.05,3.72l-21.76 5.07c-0.54,0.14 -1.05,0.33 -1.57,0.49l-73.02 32.24c-0.38,0.23 -0.9,0.54 -1.28,0.78 -0.37,0.24 -0.86,0.59 -1.22,0.84l-18.22 12.74c-2.59,1.65 -1.67,0.8 -4.01,2.19l-38.47 33.76c-5.32,8.48 -12.79,14.38 -18.97,22.3 -2.31,2.97 -0.6,0.74 -2.4,3.78l-11.27 17.63c-0.25,0.36 -0.63,0.82 -0.89,1.17l-18.13 33.47c-0.21,0.42 -0.48,0.96 -0.69,1.38l-18.72 47.33c-0.53,2.39 -0.36,3.26 -0.79,5.4 -0.81,4.03 -0.33,1.98 -1.26,4.93l-4.69 22.14c-2.76,7.98 -4.8,76.77 -0.62,89.39l25.33 84.06c3.14,7.76 4.96,7.62 8.95,13.75 1.51,2.32 0.76,1.21 2.2,3.99l7.49 19.34z"/>
   <path class="fil0" d="M1147.5 615.91l0 8.26c4.11,1.65 5.44,6.4 8.3,10.27l19.74 33.92c0.77,2.85 0.78,1.7 0.86,5.34l12.38 0c2.31,-5.74 5.1,-4.34 13.8,-6.84l16.52 -4.13c0.5,-0.16 0.99,-0.41 1.51,-0.57 11.51,-3.22 29.71,2.47 41.43,6.39 2.03,0.68 2.82,0.79 4.77,1.43l22.09 10.93c4.36,3.47 1.66,1.52 5.19,5.13 9.11,9.34 18.64,19.31 24.18,31.54l2.66 7.66c0.73,2.29 1.08,3.33 1.53,4.66 0.17,0.49 0.41,1 0.57,1.49l6.38 31.07 -10.51 39.26c-0.19,0.46 -0.42,1 -0.63,1.44l-11.18 17.71c-0.24,0.38 -0.53,0.92 -0.78,1.29 -0.18,0.27 -1.93,2.54 -2.79,3.4l-7.4 13.24c0.96,0.35 5.51,0.75 10.96,9.67 0.24,0.39 0.5,0.94 0.72,1.34l19.28 22c4.13,4.05 8.41,7.15 10.31,12.39l4.13 0c2.56,-7.09 16.3,-15.96 26.26,-31.53l22.33 -45.78c0.83,-3.18 0.42,-2.45 0.95,-5.25l3.27 -11.18c2.2,-8.01 2.61,-50.72 0,-60.2l-11.47 -36c-0.21,-0.42 -0.5,-0.94 -0.71,-1.35 -0.21,-0.41 -0.49,-0.95 -0.71,-1.36l-56.41 -67.42c-0.4,-0.23 -0.96,-0.49 -1.35,-0.72 -0.39,-0.23 -0.93,-0.52 -1.31,-0.76l-27.56 -15.78c-0.42,-0.21 -0.94,-0.49 -1.37,-0.69 -9.32,-4.26 -19.25,-5.25 -28.84,-8.31 -0.5,-0.16 -0.98,-0.43 -1.47,-0.59l-20.66 -2.04c-10.29,0.09 -30.08,-1.19 -39.14,0.12l-7.8 2.52c-0.51,0.16 -1.02,0.38 -1.54,0.53 -3.37,0.94 -2.24,0.43 -5.21,0.98l-41.28 16.52z"/>
   <path class="fil0" d="M685.2 615.91l0 8.26c5.75,2.07 6.68,4.64 9.07,9.51 0.21,0.44 0.44,0.99 0.64,1.42l18.33 33.27c0.77,2.85 0.77,1.7 0.85,5.34l12.38 0c2.31,-5.74 5.1,-4.34 13.8,-6.84 4.65,-1.34 3.95,-0.72 8.66,-1.66 0.61,-0.13 1.16,-0.18 1.75,-0.31 22.09,-5.19 26.5,-3.61 50.6,4.18l3.22 0.91c0.52,0.17 1.08,0.31 1.58,0.48l3.03 1.1c0.46,0.19 1,0.42 1.44,0.63l44.03 42.65c0.22,0.4 0.5,0.94 0.71,1.36 0.21,0.42 0.47,0.96 0.67,1.4l1.2 2.93c0.18,0.49 0.36,1.04 0.53,1.53 0.75,2.21 0.71,2.71 1.39,4.8l4.19 16.45c0.13,0.57 0.27,1.1 0.42,1.64l1.73 4.47c2.51,7.75 1.77,16.38 -0.61,23.39l-17.05 42.81c-5.71,8.09 3.71,2.88 -5.7,6.68l0 8.26c0.48,0.18 1.17,0.06 1.38,0.68l2.78 1.35c0.37,0.18 1,0.47 1.4,0.66 0.41,0.2 0.99,0.45 1.41,0.66 0.56,0.28 2.2,1.08 2.74,1.4l8.9 7.6c1.93,1.98 2.7,2.78 5.12,5.2l16.22 14.74c6.17,4.33 2.03,-3.63 5.46,4.86l8.26 0c1.57,-4.36 0.85,-1.88 3.2,-5.06l28.88 -55.73c0.14,-0.56 0.27,-1.09 0.4,-1.66 0.13,-0.6 0.18,-1.15 0.3,-1.76l3.96 -14.62c2.15,-10.23 1.78,-51.47 -1.62,-61.55l-1.86 -6.4c-0.98,-4.89 -0.22,-3.77 -1.68,-8.64l-8.18 -20.71c-0.22,-0.42 -0.49,-0.95 -0.7,-1.37l-16.68 -28.72c-7.5,-10.73 -32.67,-33.63 -37.68,-36.62l-9.84 -6.67c-0.36,-0.25 -0.85,-0.6 -1.22,-0.84 -0.37,-0.24 -0.89,-0.56 -1.28,-0.78l-13.79 -6.85c-0.41,-0.21 -0.95,-0.48 -1.37,-0.69l-32.74 -10.6c-0.52,-0.15 -1.03,-0.36 -1.54,-0.53 -8.79,-2.81 -18.14,-2.64 -28.34,-2.62 -10.02,0.02 -27.47,-1.57 -36.29,0.85l-36 11.47c-0.42,0.21 -0.94,0.5 -1.35,0.71l-15.11 7.6z"/>
   <path class="fil0" d="M998.91 1123.62l15.43 3.14c0.55,0.15 1.08,0.29 1.64,0.42l10.39 2c0.51,0.15 1.02,0.39 1.51,0.55l57.06 46.13 11.62 35.86c1.53,4.71 2.35,12.76 1.03,18.79l-17.94 46.08c-0.25,0.36 -0.58,0.88 -0.82,1.24l-6.57 9.95c-6.46,6.92 -13.86,17.24 -23.82,17.46l0 8.25c5.54,2.24 1.87,0.26 4.93,5.4l19.07 34.58c0.29,0.56 1.1,2.18 1.42,2.71l1.63 2.5c0.25,0.35 0.64,0.81 0.9,1.16 5.91,7.96 1.96,-1.3 5.08,7.31l4.13 0c2.19,-6.05 4.57,-6.15 9.58,-8.99l41.44 -43.17c0.67,-1.05 2.1,-2.68 3.58,-4.67l10.78 -20.18c0.28,-0.56 1.14,-2.13 1.42,-2.71l6.55 -18.22c2.8,-10.69 5.27,-17.27 5.14,-29.94 -0.15,-15.4 1.63,-37.57 -2.69,-51.12l-28.5 -64.37c-6.63,-9.48 -17.39,-17.65 -25.62,-25.97l-14.76 -12.07c-0.39,-0.23 -0.93,-0.52 -1.31,-0.76 -0.37,-0.24 -0.89,-0.57 -1.24,-0.82l-36.89 -18.83c-0.51,-0.17 -1.05,-0.34 -1.55,-0.51 -19.29,-6.46 -30.47,-7.24 -52.61,-7.24l0 66.04z"/>
   <path class="fil0" d="M1461.21 1123.62l13.89 2.62c0.51,0.16 1.02,0.38 1.54,0.53 0.55,0.15 1.08,0.29 1.64,0.42l25.71 7.31c9.64,4.37 19.92,12.6 27.42,20.05l5.99 6.39c0.25,0.36 0.55,0.9 0.79,1.27 6.5,10.23 12.01,19.52 15.96,31.51l4.09 16.55c4.19,12.39 1.02,18.61 -1.54,29.5 -2.44,10.43 -1.67,21.32 -8.81,24.2l0 12.38 41.43 20.48c0.41,0.22 0.98,0.45 1.38,0.69l14.98 7.72c1.84,-5.08 1.22,-2.46 2.06,-4.13 0.18,-0.36 0.49,-0.98 0.69,-1.38 0.27,-0.54 1.09,-2.19 1.38,-2.75l2.77 -5.49c0.22,-0.41 0.5,-0.95 0.71,-1.36 6.41,-12.52 6.6,-21.29 11.01,-34.39 4.51,-13.39 3.58,-54.54 -0.59,-67.59l-4.07 -16.57c-0.97,-2.84 -1.88,-6.43 -3,-9.38l-11.6 -23.48c-0.23,-0.39 -0.54,-0.91 -0.78,-1.28l-9.93 -14.84c-4.11,-5.28 0.54,0.32 -4.05,-4.2 -11.94,-11.76 -22.8,-24.49 -36.75,-33.41l-15.24 -9.53c-0.57,-0.28 -2.2,-1.08 -2.77,-1.36 -0.42,-0.21 -0.96,-0.48 -1.38,-0.69 -0.42,-0.21 -0.96,-0.48 -1.38,-0.69 -5.12,-2.59 2.35,1.21 -2.74,-1.39l-34.28 -11.12c-5.57,-1.78 3.54,-0.19 -6.05,-2.21 -5.75,-1.21 -21.68,-0.4 -28.49,-0.4l0 66.04z"/>
   <path class="fil0" d="M957.63 137.1l0 12.38c5.43,2.19 1.76,-2.17 4.76,11.75 0.13,0.58 0.24,1.12 0.38,1.68l6.22 22.67c3.44,13.61 -0.87,11.01 5.14,13.43l12.38 4.13c2.5,-6.21 -4.47,-3.01 8.1,-4.44 4.13,-0.47 9.99,0.1 13.73,1.15l33.34 10.03c7.56,3.42 27.71,18.28 33.41,26.44l1.53 2.6c1.4,2.35 0.52,1.39 2.19,4 7.82,12.21 3.67,-1.47 11.9,23.18 0.17,0.5 0.39,1.01 0.56,1.51 0.17,0.49 0.41,1 0.57,1.49l6.11 28.97 66.04 0c0,-44.92 0.36,-17.19 -4.12,-41.28 -0.12,-0.64 -0.12,-1.19 -0.24,-1.82l-13.5 -33.97c-0.21,-0.42 -0.47,-0.97 -0.67,-1.39l-8.86 -13.85c-7.58,-11.86 -30.83,-36.92 -41.4,-43.21 -2.35,-1.4 -1.4,-0.53 -4,-2.19l-20.75 -12.27c-0.42,-0.21 -0.96,-0.48 -1.38,-0.69l-25.31 -9.77c-3.88,-0.86 -4.79,-0.4 -8.79,-1.53 -0.52,-0.14 -1.03,-0.36 -1.54,-0.53 -0.49,-0.16 -0.98,-0.43 -1.47,-0.59 -11.13,-3.75 -40.42,-2.36 -53.85,-2.18 -19.8,0.27 -4.81,4.28 -20.48,4.28z"/>
   <path class="fil0" d="M536.6 1123.62c6.82,0 5.45,-0.32 10.96,1.42l24.17 6.8c0.52,0.16 1.09,0.28 1.61,0.45 0.52,0.17 1.08,0.31 1.58,0.48l11 5.51c10.42,7.46 17.78,9.89 20.85,18.37l8.26 0c0.01,-0.03 0.57,-5.4 9.67,-10.96 0.39,-0.24 0.94,-0.5 1.34,-0.72l24.04 -21.37c4.95,-5.08 5.16,-6.34 10.35,-8.22l0 -4.13c-7.25,-2.63 -13.71,-11.69 -19.54,-17.61l-10.68 -7.89c-0.39,-0.23 -0.93,-0.52 -1.31,-0.76 -0.37,-0.24 -0.89,-0.57 -1.24,-0.82l-13.99 -8.71c-1,-0.49 -2.72,-1.34 -4.14,-2.05l-4.11 -2.08c-0.41,-0.21 -0.95,-0.49 -1.36,-0.7 -0.41,-0.21 -0.93,-0.5 -1.35,-0.71l-7.14 -3.18c-2.76,-0.96 -5.59,-1.7 -7.85,-2.47l-16.57 -4.07c-15.14,-4.83 -14.68,-2.62 -34.53,-2.62l0 66.04z"/>
   <path class="fil0" d="M1048.44 380.63l0 8.26c4.95,2 1.86,-0.32 5.63,6.76l3.29 7.03c0.23,0.39 0.54,0.91 0.78,1.28l7.59 10.99c0.21,0.42 0.45,0.98 0.66,1.4 0.21,0.42 0.46,0.97 0.66,1.4l5.39 11.12c0.29,0.56 1.1,2.18 1.42,2.71 0.23,0.39 0.54,0.91 0.78,1.28 0.24,0.37 0.59,0.87 0.84,1.22 6.89,9.79 2.82,-0.26 5.98,8.47l4.13 0c1.45,-4 0.15,-1.7 2.17,-4.02 5.74,-6.62 4.99,-0.72 16.44,-12.46l25.85 -25.75c6.33,-6.8 4.2,-8.45 8.2,-12.44 3.1,-3.1 0.69,-1.52 5.13,-3.12l0 -4.13c-7.05,-2.55 -3.61,-3.23 -10.97,-7.61l-15.23 -7.47c-0.42,-0.21 -0.98,-0.45 -1.4,-0.66l-8.61 -5.84c-2.93,-2.19 -0.61,-0.74 -3.67,-2.52 -14.6,-8.48 -10.54,-0.85 -13.79,-8.91l-8.25 0c-2.89,7.99 0.12,-0.18 -2.7,5.56 -0.76,1.56 -1.8,3.87 -2.81,5.44 -2.27,3.55 -4.79,5.51 -7.89,8.63 -6.91,6.91 -11.57,10.48 -19.63,13.39z"/>
  </g>
 </g>
</svg>
